<svg width="30" height="30" viewBox="0 0 30 30" fill="none" xmlns="http://www.w3.org/2000/svg">
<path d="M15 30C23.2843 30 30 23.2843 30 15C30 6.71573 23.2843 0 15 0C6.71573 0 0 6.71573 0 15C0 23.2843 6.71573 30 15 30Z" fill="#2E5276"/>
<path d="M16.16 12.9535C16.4066 12.6757 16.6089 12.3957 16.8622 12.1579C17.64 11.4246 18.56 11.0557 19.6355 11.0646C20.2267 11.0691 20.8089 11.1113 21.3778 11.2757C22.68 11.6513 23.4355 12.5491 23.7978 13.8202C24.0689 14.7735 24.1178 15.7535 24.12 16.7357C24.1244 18.8068 24.1133 20.8802 24.12 22.9513C24.12 23.1446 24.0667 23.1957 23.8755 23.1957C22.8089 23.1868 21.74 23.1868 20.6733 23.1957C20.4844 23.1957 20.4444 23.1402 20.4444 22.9624C20.4511 20.9913 20.4511 19.0202 20.4444 17.0468C20.4444 16.5535 20.4111 16.0579 20.2733 15.5779C20.0178 14.6935 19.3844 14.2424 18.4578 14.2913C17.1911 14.3579 16.5333 14.9846 16.3733 16.2713C16.3355 16.5779 16.3155 16.8868 16.3178 17.1957C16.3178 19.1135 16.3178 21.0313 16.3222 22.9491C16.3222 23.1402 16.2755 23.1957 16.08 23.1957C15.0044 23.1868 13.9289 23.1868 12.8533 23.1957C12.68 23.1957 12.6311 23.1513 12.6311 22.9757C12.6355 19.1802 12.6355 15.3824 12.6311 11.5868C12.6311 11.3979 12.6933 11.3557 12.8711 11.3557C13.8911 11.3624 14.9133 11.3646 15.9333 11.3557C16.1222 11.3557 16.1689 11.4157 16.1667 11.5935C16.1555 12.0468 16.1622 12.5002 16.1622 12.9557L16.16 12.9535Z" fill="#FEFEFE"/>
<path d="M10.3112 17.291C10.3112 19.1688 10.309 21.0466 10.3156 22.9244C10.3156 23.1333 10.2645 23.1955 10.049 23.1933C8.98228 23.1822 7.91562 23.1844 6.84673 23.1933C6.67562 23.1933 6.62451 23.151 6.62451 22.9755C6.62896 19.1733 6.62896 15.3711 6.62451 11.5666C6.62451 11.4088 6.66229 11.3533 6.82895 11.3533C7.91117 11.3599 8.99341 11.3622 10.0756 11.3533C10.2845 11.3533 10.3112 11.4311 10.3112 11.6111C10.3067 13.5044 10.309 15.3977 10.309 17.291H10.3112Z" fill="#FEFEFE"/>
<path d="M10.6043 7.58658C10.6043 8.76658 9.64874 9.72658 8.47096 9.72658C7.30874 9.72658 6.3443 8.76658 6.33986 7.60436C6.33541 6.43102 7.29986 5.46436 8.47541 5.46436C9.64208 5.46436 10.6021 6.42213 10.6043 7.58435V7.58658Z" fill="#FEFEFE"/>
</svg>
