<svg width="30" height="30" viewBox="0 0 30 30" fill="none" xmlns="http://www.w3.org/2000/svg">
<path d="M15 30C23.2843 30 30 23.2843 30 15C30 6.71573 23.2843 0 15 0C6.71573 0 0 6.71573 0 15C0 23.2843 6.71573 30 15 30Z" fill="#2E5276"/>
<path d="M11.9687 23.6401C19.2953 23.6401 23.302 17.5712 23.302 12.3067C23.302 12.1334 23.2976 11.9623 23.2909 11.7912C24.0687 11.229 24.7442 10.5267 25.2776 9.72897C24.5642 10.0467 23.7953 10.2601 22.9909 10.3556C23.8131 9.8623 24.4442 9.0823 24.742 8.15342C23.9731 8.60897 23.1198 8.9423 22.2131 9.12008C21.4864 8.34675 20.4509 7.8623 19.3064 7.8623C17.1064 7.8623 15.322 9.64675 15.322 11.8445C15.322 12.1579 15.3576 12.4601 15.4265 12.7534C12.1153 12.5867 9.17979 11.0023 7.21757 8.59119C6.87535 9.18008 6.67757 9.86453 6.67757 10.5934C6.67757 11.9756 7.37979 13.1956 8.4509 13.909C7.79757 13.889 7.18423 13.709 6.64646 13.4112C6.64646 13.4267 6.64646 13.4445 6.64646 13.4623C6.64646 15.3912 8.01979 17.0023 9.84201 17.3667C9.50646 17.4579 9.15534 17.5067 8.79312 17.5067C8.53756 17.5067 8.28645 17.4823 8.04423 17.4356C8.5509 19.0179 10.022 20.169 11.7642 20.2023C10.3998 21.2712 8.68424 21.9067 6.81757 21.9067C6.49535 21.9067 6.17979 21.889 5.86646 21.8512C7.62868 22.9801 9.72202 23.6401 11.9709 23.6401" fill="white"/>
</svg>
