<svg width="26" height="26" viewBox="0 0 26 26" fill="none" xmlns="http://www.w3.org/2000/svg">
<mask id="mask0_273_5168" style="mask-type:alpha" maskUnits="userSpaceOnUse" x="4" y="4" width="18" height="18">
<path fill-rule="evenodd" clip-rule="evenodd" d="M20.9874 4.51256C20.304 3.82915 19.196 3.82915 18.5126 4.51256L12.75 10.2751L6.98744 4.51256C6.30402 3.82915 5.19598 3.82915 4.51256 4.51256C3.82915 5.19598 3.82915 6.30402 4.51256 6.98744L10.2751 12.75L4.51256 18.5126C3.82915 19.196 3.82915 20.304 4.51256 20.9874C5.19598 21.6709 6.30402 21.6709 6.98744 20.9874L12.75 15.2249L18.5126 20.9874C19.196 21.6709 20.304 21.6709 20.9874 20.9874C21.6709 20.304 21.6709 19.196 20.9874 18.5126L15.2249 12.75L20.9874 6.98744C21.6709 6.30402 21.6709 5.19598 20.9874 4.51256Z" fill="white"/>
</mask>
<g mask="url(#mask0_273_5168)">
<rect width="26" height="26" fill="#111111"/>
</g>
</svg>
