<svg width="20" height="20" viewBox="0 0 20 20" fill="none" xmlns="http://www.w3.org/2000/svg">
<path fill-rule="evenodd" clip-rule="evenodd" d="M15.3657 1.75028L18.2503 4.6349C18.5319 4.91653 18.5319 5.37314 18.2503 5.65476L17.4962 6.40891L13.5917 2.50443L14.3458 1.75028C14.6275 1.46866 15.0841 1.46866 15.3657 1.75028ZM12.5038 3.59229L7.13429 8.96182C6.99905 9.09706 6.92307 9.28049 6.92307 9.47176V12.3564C6.92307 12.7547 7.24594 13.0775 7.64422 13.0775H10.5288C10.7201 13.0775 10.9035 13.0015 11.0388 12.8663L16.4083 7.49677L12.5038 3.59229ZM15.3846 11.6621C15.3846 11.0249 15.9012 10.5083 16.5385 10.5083C17.1757 10.5083 17.6923 11.0249 17.6923 11.6621V15.7698C17.6923 17.2568 16.4869 18.4621 15 18.4621H4.23076C2.74384 18.4621 1.53845 17.2568 1.53845 15.7698V5.0006C1.53845 3.51368 2.74384 2.30829 4.23076 2.30829H8.33845C8.9757 2.30829 9.4923 2.82489 9.4923 3.46214C9.4923 4.09939 8.9757 4.61599 8.33845 4.61599H4.23076C4.01834 4.61599 3.84614 4.78818 3.84614 5.0006V15.7698C3.84614 15.9822 4.01834 16.1544 4.23076 16.1544H15C15.2124 16.1544 15.3846 15.9822 15.3846 15.7698V11.6621Z" fill="#2E5276"/>
</svg>
