<svg width="960" height="960" viewBox="0 0 960 960" fill="none" xmlns="http://www.w3.org/2000/svg">
<g clip-path="url(#clip0_333_8483)">
<path d="M1706 0H-13.6409V967.649H1706V0Z" fill="url(#paint0_linear_333_8483)"/>
<path d="M802.742 403.189C875.953 403.189 935.303 343.818 935.303 270.58C935.303 197.342 875.953 137.972 802.742 137.972C729.53 137.972 670.181 197.342 670.181 270.58C670.181 343.818 729.53 403.189 802.742 403.189Z" fill="url(#paint1_linear_333_8483)"/>
<path d="M-17.4864 1032.96C-36.0098 1014.43 -36.0098 984.418 -17.4864 965.888L170.726 777.608C189.25 759.078 219.255 759.078 237.779 777.608C256.302 796.138 256.302 826.155 237.779 844.685L49.5661 1032.96C31.0427 1051.49 1.037 1051.49 -17.4864 1032.96Z" fill="url(#paint2_linear_333_8483)"/>
<path d="M885.338 663.827C903.862 682.357 903.862 712.373 885.338 730.903L697.126 919.183C678.602 937.713 648.597 937.713 630.073 919.183C611.55 900.653 611.55 870.637 630.073 852.107L818.286 663.827C836.809 645.297 866.815 645.297 885.338 663.827V663.827Z" fill="url(#paint3_linear_333_8483)"/>
<path d="M351.519 935.302C332.995 916.772 332.995 886.756 351.519 868.226L539.731 679.946C558.255 661.416 588.261 661.416 606.784 679.946C625.307 698.476 625.307 728.493 606.784 747.023L418.571 935.302C400.048 953.832 370.042 953.832 351.519 935.302Z" fill="url(#paint4_linear_333_8483)"/>
<path d="M261.962 1161.1C243.439 1142.57 243.439 1112.56 261.962 1094.03L450.175 905.746C468.698 887.216 498.704 887.216 517.227 905.746C535.751 924.276 535.751 954.292 517.227 972.822L329.015 1161.1C310.491 1179.63 280.485 1179.63 261.962 1161.1Z" fill="url(#paint5_linear_333_8483)"/>
<path d="M-82.7786 969.111C-101.302 950.581 -101.302 920.565 -82.7786 902.035L182.479 633.106C201.003 614.576 231.008 614.576 249.532 633.106C268.055 651.636 268.055 681.653 249.532 700.183L-15.7262 969.111C-34.2495 987.641 -64.2552 987.641 -82.7786 969.111V969.111Z" fill="url(#paint6_linear_333_8483)"/>
<path d="M168.56 855.683C166.475 853.597 166.475 850.184 168.56 848.07L329.421 687.152C331.506 685.066 334.918 685.066 337.03 687.152C339.116 689.238 339.116 692.652 337.03 694.765L176.17 855.683C174.084 857.769 170.672 857.769 168.56 855.683V855.683Z" fill="url(#paint7_linear_333_8483)"/>
<path d="M205.363 673.716C207.448 675.802 207.448 679.215 205.363 681.328L44.502 842.246C42.4168 844.332 39.0046 844.332 36.8923 842.246C34.8071 840.16 34.8071 836.747 36.8923 834.634L197.753 673.716C199.838 671.603 203.251 671.603 205.363 673.716V673.716Z" fill="url(#paint8_linear_333_8483)"/>
<path d="M336.949 823.418C334.864 821.332 334.864 817.919 336.949 815.806L497.81 654.888C499.895 652.802 503.308 652.802 505.42 654.888C507.505 656.974 507.505 660.387 505.42 662.5L344.559 823.418C342.474 825.504 339.061 825.504 336.949 823.418Z" fill="url(#paint9_linear_333_8483)"/>
<path d="M136.333 1026.81C134.248 1024.73 134.248 1021.32 136.333 1019.2L297.194 858.284C299.28 856.171 302.692 856.171 304.804 858.284C306.889 860.37 306.889 863.783 304.804 865.896L143.943 1026.81C141.858 1028.9 138.446 1028.9 136.333 1026.81V1026.81Z" fill="url(#paint10_linear_333_8483)"/>
<path d="M798.3 751.683C800.385 753.769 800.385 757.182 798.3 759.295L637.439 920.213C635.354 922.299 631.942 922.299 629.83 920.213C627.744 918.127 627.744 914.714 629.83 912.601L790.691 751.683C792.776 749.597 796.188 749.597 798.3 751.683Z" fill="url(#paint11_linear_333_8483)"/>
<path d="M827.846 886.079C829.931 888.165 829.931 891.579 827.846 893.692L666.985 1054.61C664.899 1056.7 661.487 1056.7 659.375 1054.61C657.29 1052.5 657.29 1049.11 659.375 1047L820.236 886.079C822.321 883.993 825.733 883.993 827.846 886.079Z" fill="url(#paint12_linear_333_8483)"/>
<path d="M615.585 816.186C617.67 818.272 617.67 821.685 615.585 823.798L454.724 984.716C452.612 986.802 449.227 986.802 447.114 984.716C445.029 982.63 445.029 979.217 447.114 977.104L607.975 816.186C610.061 814.1 613.473 814.1 615.585 816.186Z" fill="url(#paint13_linear_333_8483)"/>
<path d="M358.451 665.751C356.366 663.638 356.366 660.252 358.451 658.139L519.312 497.221C521.398 495.135 524.81 495.135 526.922 497.221C529.007 499.307 529.007 502.72 526.922 504.833L366.061 665.751C363.976 667.837 360.564 667.837 358.451 665.751Z" fill="url(#paint14_linear_333_8483)"/>
<path d="M986.378 825.151C988.463 827.237 988.463 830.651 986.378 832.764L825.517 993.682C823.432 995.768 820.02 995.768 817.907 993.682C815.822 991.596 815.822 988.183 817.907 986.069L978.768 825.151C980.853 823.065 984.266 823.065 986.378 825.151Z" fill="url(#paint15_linear_333_8483)"/>
<path d="M182.1 774.06C184.185 776.146 184.185 779.559 182.1 781.672L21.2394 942.59C19.1541 944.676 15.7419 944.676 13.6296 942.59C11.5444 940.504 11.5444 937.091 13.6296 934.978L174.49 774.06C176.576 771.974 179.988 771.974 182.1 774.06Z" fill="url(#paint16_linear_333_8483)"/>
</g>
<defs>
<linearGradient id="paint0_linear_333_8483" x1="352.846" y1="151.22" x2="2189.64" y2="1388.68" gradientUnits="userSpaceOnUse">
<stop offset="0.1" stop-color="#5D53C8"/>
<stop offset="0.33" stop-color="#976FBF"/>
<stop offset="0.44" stop-color="#E07C7F"/>
<stop offset="0.8" stop-color="#EFD04F"/>
</linearGradient>
<linearGradient id="paint1_linear_333_8483" x1="733.658" y1="-37.3315" x2="984.625" y2="1080.79" gradientUnits="userSpaceOnUse">
<stop offset="0.1" stop-color="#766CE7"/>
<stop offset="0.33" stop-color="#BF6FB7"/>
<stop offset="0.44" stop-color="#E07C7F"/>
<stop offset="0.72" stop-color="#EFD04F"/>
</linearGradient>
<linearGradient id="paint2_linear_333_8483" x1="419.31" y1="867.088" x2="-380.73" y2="965.883" gradientUnits="userSpaceOnUse">
<stop offset="0.1" stop-color="#766CE7"/>
<stop offset="0.33" stop-color="#BF6FB7"/>
<stop offset="0.44" stop-color="#E07C7F"/>
<stop offset="0.72" stop-color="#EFD04F"/>
</linearGradient>
<linearGradient id="paint3_linear_333_8483" x1="448.514" y1="829.719" x2="1248.57" y2="730.943" gradientUnits="userSpaceOnUse">
<stop offset="0.1" stop-color="#766CE7"/>
<stop offset="0.33" stop-color="#BF6FB7"/>
<stop offset="0.44" stop-color="#E07C7F"/>
<stop offset="0.72" stop-color="#EFD04F"/>
</linearGradient>
<linearGradient id="paint4_linear_333_8483" x1="788.313" y1="769.431" x2="-11.7267" y2="868.225" gradientUnits="userSpaceOnUse">
<stop offset="0.1" stop-color="#766CE7"/>
<stop offset="0.33" stop-color="#BF6FB7"/>
<stop offset="0.44" stop-color="#E07C7F"/>
<stop offset="0.72" stop-color="#EFD04F"/>
</linearGradient>
<linearGradient id="paint5_linear_333_8483" x1="698.753" y1="995.222" x2="-101.287" y2="1094.02" gradientUnits="userSpaceOnUse">
<stop offset="0.1" stop-color="#766CE7"/>
<stop offset="0.33" stop-color="#BF6FB7"/>
<stop offset="0.44" stop-color="#E07C7F"/>
<stop offset="0.72" stop-color="#EFD04F"/>
</linearGradient>
<linearGradient id="paint6_linear_333_8483" x1="480.108" y1="752.094" x2="-546.583" y2="878.875" gradientUnits="userSpaceOnUse">
<stop offset="0.1" stop-color="#766CE7"/>
<stop offset="0.33" stop-color="#BF6FB7"/>
<stop offset="0.44" stop-color="#E07C7F"/>
<stop offset="0.72" stop-color="#EFD04F"/>
</linearGradient>
<linearGradient id="paint7_linear_333_8483" x1="445.692" y1="747.583" x2="-53.4734" y2="809.241" gradientUnits="userSpaceOnUse">
<stop offset="0.1" stop-color="#766CE7"/>
<stop offset="0.33" stop-color="#BF6FB7"/>
<stop offset="0.44" stop-color="#E07C7F"/>
<stop offset="0.72" stop-color="#EFD04F"/>
</linearGradient>
<linearGradient id="paint8_linear_333_8483" x1="-71.7154" y1="781.83" x2="427.431" y2="720.191" gradientUnits="userSpaceOnUse">
<stop offset="0.1" stop-color="#766CE7"/>
<stop offset="0.33" stop-color="#BF6FB7"/>
<stop offset="0.44" stop-color="#E07C7F"/>
<stop offset="0.72" stop-color="#EFD04F"/>
</linearGradient>
<linearGradient id="paint9_linear_333_8483" x1="614.071" y1="715.344" x2="114.905" y2="776.964" gradientUnits="userSpaceOnUse">
<stop offset="0.1" stop-color="#766CE7"/>
<stop offset="0.33" stop-color="#BF6FB7"/>
<stop offset="0.44" stop-color="#E07C7F"/>
<stop offset="0.72" stop-color="#EFD04F"/>
</linearGradient>
<linearGradient id="paint10_linear_333_8483" x1="413.445" y1="918.723" x2="-85.7013" y2="980.362" gradientUnits="userSpaceOnUse">
<stop offset="0.1" stop-color="#766CE7"/>
<stop offset="0.33" stop-color="#BF6FB7"/>
<stop offset="0.44" stop-color="#E07C7F"/>
<stop offset="0.72" stop-color="#EFD04F"/>
</linearGradient>
<linearGradient id="paint11_linear_333_8483" x1="521.163" y1="859.778" x2="1020.35" y2="798.139" gradientUnits="userSpaceOnUse">
<stop offset="0.1" stop-color="#766CE7"/>
<stop offset="0.33" stop-color="#BF6FB7"/>
<stop offset="0.44" stop-color="#E07C7F"/>
<stop offset="0.72" stop-color="#EFD04F"/>
</linearGradient>
<linearGradient id="paint12_linear_333_8483" x1="550.729" y1="994.177" x2="1049.88" y2="932.538" gradientUnits="userSpaceOnUse">
<stop offset="0.1" stop-color="#766CE7"/>
<stop offset="0.33" stop-color="#BF6FB7"/>
<stop offset="0.44" stop-color="#E07C7F"/>
<stop offset="0.72" stop-color="#EFD04F"/>
</linearGradient>
<linearGradient id="paint13_linear_333_8483" x1="338.442" y1="924.296" x2="837.627" y2="862.657" gradientUnits="userSpaceOnUse">
<stop offset="0.1" stop-color="#766CE7"/>
<stop offset="0.33" stop-color="#BF6FB7"/>
<stop offset="0.44" stop-color="#E07C7F"/>
<stop offset="0.72" stop-color="#EFD04F"/>
</linearGradient>
<linearGradient id="paint14_linear_333_8483" x1="635.575" y1="557.634" x2="136.409" y2="619.292" gradientUnits="userSpaceOnUse">
<stop offset="0.1" stop-color="#766CE7"/>
<stop offset="0.33" stop-color="#BF6FB7"/>
<stop offset="0.44" stop-color="#E07C7F"/>
<stop offset="0.72" stop-color="#EFD04F"/>
</linearGradient>
<linearGradient id="paint15_linear_333_8483" x1="709.244" y1="933.233" x2="1208.41" y2="871.613" gradientUnits="userSpaceOnUse">
<stop offset="0.1" stop-color="#766CE7"/>
<stop offset="0.33" stop-color="#BF6FB7"/>
<stop offset="0.44" stop-color="#E07C7F"/>
<stop offset="0.72" stop-color="#EFD04F"/>
</linearGradient>
<linearGradient id="paint16_linear_333_8483" x1="-95.0151" y1="882.183" x2="404.17" y2="820.544" gradientUnits="userSpaceOnUse">
<stop offset="0.1" stop-color="#766CE7"/>
<stop offset="0.33" stop-color="#BF6FB7"/>
<stop offset="0.44" stop-color="#E07C7F"/>
<stop offset="0.72" stop-color="#EFD04F"/>
</linearGradient>
<clipPath id="clip0_333_8483">
<rect width="960" height="960" fill="white"/>
</clipPath>
</defs>
</svg>
