<svg width="173" height="50" viewBox="0 0 173 50" fill="none" xmlns="http://www.w3.org/2000/svg">
<path d="M0 49.0885H29.1667V41.0156H9.63542V0.911459H0V49.0885Z" fill="white"/>
<path d="M54.2358 50C66.9963 50 75.7853 40.4297 75.7853 24.8047C75.7853 9.17969 66.9963 0 54.2358 0C41.4754 0 32.6864 9.11458 32.6864 24.8047C32.6864 40.4297 41.4754 50 54.2358 50ZM54.2358 41.6667C47.0744 41.6667 42.5171 35.0911 42.5171 24.8047C42.5171 14.4531 47.0744 8.26823 54.2358 8.26823C61.3973 8.26823 65.9546 14.4531 65.9546 24.8047C65.9546 35.0911 61.3973 41.6667 54.2358 41.6667Z" fill="white"/>
<path d="M105.898 50C112.604 50 118.268 47.3958 121.523 44.2057V22.4609H104.401V30.3385H112.929V39.8438C111.562 41.0156 109.218 41.6667 106.875 41.6667C97.4345 41.6667 92.6168 35.3516 92.6168 24.8698C92.6168 14.5182 98.2157 8.26823 106.224 8.26823C110.586 8.26823 113.32 10.026 115.664 12.3047L120.807 6.18489C117.682 2.99479 112.864 0 105.898 0C93.0725 0 82.786 9.30989 82.786 25.1953C82.786 41.276 92.747 50 105.898 50Z" fill="white"/>
<path d="M151.002 50C163.762 50 172.551 40.4297 172.551 24.8047C172.551 9.17969 163.762 0 151.002 0C138.242 0 129.452 9.11458 129.452 24.8047C129.452 40.4297 138.242 50 151.002 50ZM151.002 41.6667C143.841 41.6667 139.283 35.0911 139.283 24.8047C139.283 14.4531 143.841 8.26823 151.002 8.26823C158.163 8.26823 162.721 14.4531 162.721 24.8047C162.721 35.0911 158.163 41.6667 151.002 41.6667Z" fill="white"/>
</svg>
