<svg width="104" height="30" viewBox="0 0 104 30" fill="none" xmlns="http://www.w3.org/2000/svg">
<path d="M0 29.4531H17.5V24.6094H5.78125V0.546876H0V29.4531Z" fill="#333333"/>
<path d="M32.5415 30C40.1978 30 45.4712 24.2578 45.4712 14.8828C45.4712 5.50781 40.1978 0 32.5415 0C24.8853 0 19.6118 5.46875 19.6118 14.8828C19.6118 24.2578 24.8853 30 32.5415 30ZM32.5415 25C28.2446 25 25.5103 21.0547 25.5103 14.8828C25.5103 8.67188 28.2446 4.96094 32.5415 4.96094C36.8384 4.96094 39.5728 8.67188 39.5728 14.8828C39.5728 21.0547 36.8384 25 32.5415 25Z" fill="#333333"/>
<path d="M63.5388 30C67.5622 30 70.9607 28.4375 72.9138 26.5234V13.4766H62.6404V18.2031H67.7576V23.9062C66.9373 24.6094 65.531 25 64.1248 25C58.4607 25 55.5701 21.2109 55.5701 14.9219C55.5701 8.71094 58.9294 4.96094 63.7341 4.96094C66.3513 4.96094 67.9919 6.01562 69.3982 7.38281L72.4841 3.71094C70.6091 1.79687 67.7185 0 63.5388 0C55.8435 0 49.6716 5.58594 49.6716 15.1172C49.6716 24.7656 55.6482 30 63.5388 30Z" fill="#333333"/>
<path d="M90.6012 30C98.2574 30 103.531 24.2578 103.531 14.8828C103.531 5.50781 98.2574 0 90.6012 0C82.9449 0 77.6715 5.46875 77.6715 14.8828C77.6715 24.2578 82.9449 30 90.6012 30ZM90.6012 25C86.3043 25 83.5699 21.0547 83.5699 14.8828C83.5699 8.67188 86.3043 4.96094 90.6012 4.96094C94.8981 4.96094 97.6324 8.67188 97.6324 14.8828C97.6324 21.0547 94.8981 25 90.6012 25Z" fill="#333333"/>
</svg>
