<svg width="26" height="26" viewBox="0 0 26 26" fill="none" xmlns="http://www.w3.org/2000/svg">
<g clip-path="url(#clip0_405_8899)">
<path d="M11.8847 12.5221C11.8847 12.2416 11.6521 12.0089 11.3715 12.0089H9.48995V13.0353H11.3715C11.6521 13.0353 11.8847 12.8026 11.8847 12.5221ZM5.47363 7.5V25.0158C5.47363 25.4742 5.95942 25.7616 6.36311 25.5426L7.69732 24.8174C7.87521 24.7216 8.09416 24.7216 8.27205 24.8174L10.2084 25.8711C10.3863 25.9668 10.6052 25.9668 10.7831 25.8711L12.7126 24.8174C12.8905 24.7216 13.1094 24.7216 13.2873 24.8174L15.2168 25.8711C15.3947 25.9668 15.6136 25.9668 15.7915 25.8711L17.721 24.8174C17.8989 24.7216 18.1178 24.7216 18.2957 24.8174L19.6231 25.5426C20.0268 25.7616 20.5126 25.4742 20.5126 25.0158V7.5H5.47363V7.5ZM7.77942 11.1537C7.77942 10.6816 8.16258 10.2984 8.63469 10.2984H9.83205V9.78526C9.83205 9.31316 10.2152 8.93 10.6873 8.93C11.1594 8.93 11.5426 9.31316 11.5426 9.78526V10.3189C12.6852 10.4079 13.5952 11.3589 13.5952 12.5221C13.5952 13.0421 13.4105 13.5142 13.1094 13.8905C13.4105 14.2668 13.5952 14.7389 13.5952 15.2589C13.5952 16.4289 12.6852 17.3732 11.5426 17.4621V17.9958C11.5426 18.4679 11.1594 18.8511 10.6873 18.8511C10.2152 18.8511 9.83205 18.4679 9.83205 17.9958V17.4826H8.63469C8.16258 17.4826 7.77942 17.0995 7.77942 16.6274V11.1537ZM18.1315 22.0395H8.55258C8.08047 22.0395 7.69732 21.6563 7.69732 21.1842C7.69732 20.7121 8.08047 20.3289 8.55258 20.3289H18.1315C18.6036 20.3289 18.9868 20.7121 18.9868 21.1842C18.9868 21.6563 18.6036 22.0395 18.1315 22.0395ZM18.1315 18.6184H16.0789C15.6068 18.6184 15.2236 18.2353 15.2236 17.7632C15.2236 17.2911 15.6068 16.9079 16.0789 16.9079H18.1315C18.6036 16.9079 18.9868 17.2911 18.9868 17.7632C18.9868 18.2353 18.6036 18.6184 18.1315 18.6184ZM18.1315 15.1974H16.0789C15.6068 15.1974 15.2236 14.8142 15.2236 14.3421C15.2236 13.87 15.6068 13.4868 16.0789 13.4868H18.1315C18.6036 13.4868 18.9868 13.87 18.9868 14.3421C18.9868 14.8142 18.6036 15.1974 18.1315 15.1974ZM18.1315 11.7763H16.0789C15.6068 11.7763 15.2236 11.3932 15.2236 10.9211C15.2236 10.4489 15.6068 10.0658 16.0789 10.0658H18.1315C18.6036 10.0658 18.9868 10.4489 18.9868 10.9211C18.9868 11.3932 18.6036 11.7763 18.1315 11.7763ZM11.8847 15.2589C11.8847 14.9784 11.6521 14.7458 11.3715 14.7458H9.48995V15.7721H11.3715C11.6521 15.7721 11.8847 15.5395 11.8847 15.2589Z" fill="white"/>
<path d="M23.2632 1H2.73684C1.22474 1 0 2.22474 0 3.73684V8.52632C0 10.0384 1.22474 11.2632 2.73684 11.2632H3.07895C3.27053 11.2632 3.42105 11.1126 3.42105 10.9211V6.13158C3.42105 5.94 3.57158 5.78947 3.76316 5.78947H22.2368C22.4284 5.78947 22.5789 5.94 22.5789 6.13158V10.9211C22.5789 11.1126 22.7295 11.2632 22.9211 11.2632H23.2632C24.7753 11.2632 26 10.0384 26 8.52632V3.73684C26 2.22474 24.7753 1 23.2632 1Z" fill="white"/>
</g>
<defs>
<clipPath id="clip0_405_8899">
<rect width="26" height="24.9463" fill="white" transform="translate(0 1)"/>
</clipPath>
</defs>
</svg>
