<svg width="26" height="26" viewBox="0 0 26 26" fill="none" xmlns="http://www.w3.org/2000/svg">
<g clip-path="url(#clip0_405_8897)">
<path d="M15.4658 0.130551C14.9395 -0.202162 14.0442 0.124501 13.288 0.844371C12.919 1.19523 12.3564 1.19523 11.9935 0.844371C11.2373 0.118452 10.3481 -0.190064 9.81572 0.130551C8.05537 1.19523 10.4267 4.90952 10.6445 5.12124H14.637C14.8548 4.90952 17.1294 1.19523 15.4658 0.130551V0.130551Z" fill="white"/>
<path d="M13.8022 17.3831H11.2313V18.8954H13.8022C14.2196 18.8954 14.5584 18.5566 14.5584 18.1392C14.5584 17.7218 14.2196 17.3831 13.8022 17.3831ZM13.8022 14.3584H11.2313V15.8707H13.8022C14.2196 15.8707 14.5584 15.532 14.5584 15.1146C14.5584 14.6972 14.2196 14.3584 13.8022 14.3584ZM22.6222 22.1923H22.5617C22.5617 22.1923 22.5617 22.156 22.5617 22.1439C22.5617 22.1197 22.5677 22.0955 22.5677 22.0713C22.5677 22.0531 22.5677 22.035 22.5617 22.0229C22.5617 21.7628 22.5677 21.4785 22.5677 21.1639C22.5677 9.06524 17.7282 7.85537 14.504 6.64551H11.0498C8.04933 7.85537 3.20987 9.06524 3.20987 21.1639C3.20987 21.4724 3.20987 21.7446 3.21591 21.9987C3.21591 22.0229 3.20987 22.0471 3.20987 22.0713C3.20987 22.1076 3.22196 22.1439 3.22196 22.1802C3.22196 22.1802 3.22196 22.1802 3.22196 22.1862L3.16147 22.1983C2.49604 22.3012 2 22.8758 2 23.5534C2 24.2309 2.53839 24.8479 3.24011 24.9145L6.71242 25.102C8.38809 25.6646 10.5416 26.0094 12.8888 26.0094C15.2359 26.0094 17.3895 25.6706 19.0651 25.102L22.5375 24.9145C23.2392 24.8479 23.7776 24.2551 23.7776 23.5534C23.7776 22.8517 23.2815 22.3012 22.6161 22.1983L22.6222 22.1923ZM16.0707 18.1392C16.0707 19.3914 15.0544 20.4077 13.8022 20.4077H13.3485V21.1639C13.3485 21.5813 13.0098 21.9201 12.5924 21.9201C12.175 21.9201 11.8362 21.5813 11.8362 21.1639V20.4077H10.4751C10.0577 20.4077 9.71894 20.069 9.71894 19.6516V13.6022C9.71894 13.1848 10.0577 12.8461 10.4751 12.8461H11.8362V12.0899C11.8362 11.6725 12.175 11.3337 12.5924 11.3337C13.0098 11.3337 13.3485 11.6725 13.3485 12.0899V12.8461H13.8022C15.0544 12.8461 16.0707 13.8624 16.0707 15.1146C16.0707 15.6953 15.8409 16.2276 15.4779 16.6269C15.8409 17.0262 16.0707 17.5585 16.0707 18.1392V18.1392Z" fill="white"/>
</g>
<defs>
<clipPath id="clip0_405_8897">
<rect width="26" height="26" fill="white"/>
</clipPath>
</defs>
</svg>
