<svg width="26" height="26" viewBox="0 0 26 26" fill="none" xmlns="http://www.w3.org/2000/svg">
<g clip-path="url(#clip0_405_8901)">
<path d="M13.219 4.74924C14.1563 5.38556 15.4358 5.13924 16.0721 4.20187C16.7084 3.26451 16.4621 1.98503 15.5248 1.34872C14.5874 0.712401 13.3079 0.958717 12.6716 1.89608C12.0353 2.83345 12.2816 4.11293 13.219 4.74924V4.74924ZM8.40897 9.40872C8.70318 8.97766 9.05897 8.60135 9.46266 8.28661L7.82055 6.91819C8.57318 5.54293 8.19003 3.79135 6.86266 2.89503C5.45318 1.94398 3.53739 2.31345 2.58634 3.71609C1.63529 5.12556 2.00476 7.04135 3.40739 7.9924C4.28318 8.58766 5.35739 8.66977 6.27424 8.3003L8.13529 9.85345C8.21739 9.70293 8.30634 9.5524 8.40897 9.40872V9.40872ZM10.3727 16.8735L9.38739 20.5613C8.8195 20.6913 8.29266 21.0266 7.93687 21.5466C7.19792 22.6413 7.48529 24.1329 8.58003 24.8719C9.67476 25.6108 11.1663 25.3235 11.9053 24.2287C12.6169 23.1819 12.3774 21.7792 11.3921 21.0129L12.3569 17.3935C11.6658 17.3524 10.9884 17.1813 10.3727 16.8735V16.8735ZM18.5421 10.8661L16.1953 11.0235C15.9353 10.2982 15.4632 9.64135 14.7721 9.16924C14.129 8.73135 13.39 8.51924 12.6648 8.51924C11.4606 8.51924 10.27 9.10082 9.54476 10.175C8.38161 11.8992 8.83318 14.2324 10.5506 15.4024C11.1937 15.8403 11.9327 16.0524 12.6579 16.0524C13.8621 16.0524 15.0527 15.4708 15.7779 14.3966C16.0584 13.9792 16.2432 13.5345 16.339 13.0692L18.679 12.9119C18.4737 12.255 18.4258 11.5503 18.5421 10.8661V10.8661Z" fill="white"/>
<path d="M4.80309 13.1585C3.39361 12.2074 1.47782 12.5769 0.526771 13.9795C-0.424281 15.389 -0.0548075 17.3048 1.34782 18.2558C2.7573 19.2069 4.67309 18.8374 5.62414 17.4348C6.57519 16.0253 6.20572 14.1095 4.80309 13.1585V13.1585ZM24.6452 9.05321C24.1184 8.69742 23.5162 8.52637 22.921 8.52637C21.9357 8.52637 20.9641 8.99847 20.3689 9.8811C19.4178 11.2906 19.7873 13.2064 21.1899 14.1574C21.7168 14.5132 22.3189 14.6843 22.9141 14.6843C23.8994 14.6843 24.871 14.2122 25.4662 13.3295C26.4173 11.9201 26.0478 10.0043 24.6452 9.05321V9.05321Z" fill="white"/>
</g>
<defs>
<clipPath id="clip0_405_8901">
<rect width="26" height="24.2895" fill="white" transform="translate(0 1)"/>
</clipPath>
</defs>
</svg>
