<svg width="26" height="26" viewBox="0 0 26 26" fill="none" xmlns="http://www.w3.org/2000/svg">
<g clip-path="url(#clip0_405_8891)">
<g clip-path="url(#clip1_405_8891)">
<path d="M20.562 6.96732H18.6928V7.98693H20.562C20.8407 7.98693 21.0718 7.75582 21.0718 7.47712C21.0718 7.19843 20.8407 6.96732 20.562 6.96732ZM19.8823 0C16.504 0 13.7646 2.73935 13.7646 6.11765C13.7646 9.49595 16.504 12.2353 19.8823 12.2353C23.2606 12.2353 25.9999 9.49595 25.9999 6.11765C25.9999 2.73935 23.2606 0 19.8823 0ZM22.7712 7.47712C22.7712 8.63948 21.8671 9.57752 20.732 9.66588V10.1961C20.732 10.6651 20.3513 11.0458 19.8823 11.0458C19.4133 11.0458 19.0326 10.6651 19.0326 10.1961V9.68627H17.8431C17.3741 9.68627 16.9934 9.30562 16.9934 8.8366V3.39869C16.9934 2.92967 17.3741 2.54902 17.8431 2.54902H19.0326V2.03922C19.0326 1.5702 19.4133 1.18954 19.8823 1.18954C20.3513 1.18954 20.732 1.5702 20.732 2.03922V2.56941C21.8671 2.65778 22.7712 3.60261 22.7712 4.75817C22.7712 5.27477 22.5877 5.74379 22.2886 6.11765C22.5877 6.4915 22.7712 6.96052 22.7712 7.47712ZM20.562 4.24837H18.6928V5.26797H20.562C20.8407 5.26797 21.0718 5.03686 21.0718 4.75817C21.0718 4.47948 20.8407 4.24837 20.562 4.24837Z" fill="#2E5276"/>
<path d="M19.2638 14.4032C18.7608 14.3216 18.1898 14.5188 17.7888 14.8586C17.6528 14.2944 17.1158 13.8186 16.5448 13.7235C16.069 13.6487 15.5252 13.8186 15.1378 14.1313C14.961 13.5875 14.3833 13.1389 13.8259 13.0437C13.2889 12.9554 12.5548 13.2408 12.2353 13.6419V9.34594C12.2353 8.75457 11.8886 8.17679 11.3176 8.00006C10.3796 7.70098 9.51634 8.39431 9.51634 9.29156V20.1674C8.76863 20.1674 8.15686 19.5556 8.15686 18.8079V17.5776C8.15686 17.3193 7.94614 17.1086 7.68784 17.1086H7.28C6.26719 17.1086 5.44471 17.931 5.44471 18.9439V22.3018C5.44471 22.8863 5.69621 23.4505 6.13804 23.838L7.96654 25.4422C8.34039 25.7684 8.81621 25.9452 9.31242 25.9452H16.8371C17.3809 25.9452 17.8975 25.7276 18.2782 25.347L19.8008 23.8244C20.1814 23.4437 20.399 22.9203 20.399 22.3833V15.8239C20.399 15.1441 19.9367 14.5188 19.2706 14.41L19.2638 14.4032ZM7.81699 13.0233H6.11765C5.74379 13.0233 5.43791 12.7174 5.43791 12.3436V4.18673C5.43791 3.81287 5.74379 3.50699 6.11765 3.50699H12.5208C12.7859 2.77287 13.1529 2.08634 13.6084 1.46777H2.71895C1.21673 1.46777 0 2.68451 0 4.18673V12.3436C0 13.8458 1.21673 15.0625 2.71895 15.0625H7.81699V13.0233ZM3.25595 9.40712C2.62379 9.40712 2.11399 8.89732 2.11399 8.26516C2.11399 7.633 2.62379 7.1232 3.25595 7.1232C3.8881 7.1232 4.39791 7.633 4.39791 8.26516C4.39791 8.89732 3.8881 9.40712 3.25595 9.40712Z" fill="#2E5276"/>
</g>
</g>
<defs>
<clipPath id="clip0_405_8891">
<rect width="26" height="26" fill="white"/>
</clipPath>
<clipPath id="clip1_405_8891">
<rect width="26" height="25.9388" fill="white"/>
</clipPath>
</defs>
</svg>
