<svg width="26" height="26" viewBox="0 0 26 26" fill="none" xmlns="http://www.w3.org/2000/svg">
<g clip-path="url(#clip0_405_8893)">
<g clip-path="url(#clip1_405_8893)">
<path d="M7.66667 19.8331H5.83333V20.8331H7.66667C7.94 20.8331 8.16667 20.6064 8.16667 20.3331C8.16667 20.0598 7.94 19.8331 7.66667 19.8331ZM3.44667 11.0598C3.48667 11.0598 3.52667 11.0664 3.56667 11.0664C3.97333 11.0664 4.32667 10.7664 4.39333 10.3531C4.68 8.38643 5.80667 6.68643 7.46667 5.6531L7.74 6.25977C7.92 6.65977 8.48 6.67976 8.69333 6.2931L9.87333 4.1131C10.04 3.80643 9.86667 3.41977 9.52 3.33977L7.1 2.7931C6.67333 2.69977 6.32 3.1331 6.5 3.5331L6.77333 4.1331C4.6 5.40643 3.11333 7.58643 2.74 10.1131C2.67333 10.5664 2.98667 10.9931 3.44667 11.0598V11.0598ZM7 11.9998C3.13333 11.9998 0 15.1331 0 18.9998C0 22.8664 3.13333 25.9998 7 25.9998C10.8667 25.9998 14 22.8664 14 18.9998C14 15.1331 10.8667 11.9998 7 11.9998ZM9.83333 20.3331C9.83333 21.4731 8.94667 22.3931 7.83333 22.4798V22.9998C7.83333 23.4598 7.46 23.8331 7 23.8331C6.54 23.8331 6.16667 23.4598 6.16667 22.9998V22.4998H5C4.54 22.4998 4.16667 22.1264 4.16667 21.6664V16.3331C4.16667 15.8731 4.54 15.4998 5 15.4998H6.16667V14.9998C6.16667 14.5398 6.54 14.1664 7 14.1664C7.46 14.1664 7.83333 14.5398 7.83333 14.9998V15.5198C8.94667 15.6064 9.83333 16.5331 9.83333 17.6664C9.83333 18.1731 9.65333 18.6331 9.36 18.9998C9.65333 19.3664 9.83333 19.8264 9.83333 20.3331ZM7.66667 17.1664H5.83333V18.1664H7.66667C7.94 18.1664 8.16667 17.9398 8.16667 17.6664C8.16667 17.3931 7.94 17.1664 7.66667 17.1664Z" fill="#2E5276"/>
<path d="M18.3333 0C14.4666 0 11.3333 3.13333 11.3333 7C11.3333 10.8667 14.4666 14 18.3333 14C22.1999 14 25.3333 10.8667 25.3333 7C25.3333 3.13333 22.1999 0 18.3333 0ZM17.8733 5.66L19.4133 6.45333C20.2866 6.90667 20.7533 7.82667 20.5933 8.80667C20.4666 9.59333 19.9599 10.2067 19.2599 10.4867V10.7667C19.2599 11.2267 18.8866 11.6 18.4266 11.6C17.9666 11.6 17.5933 11.2267 17.5933 10.7667V10.5467C16.8466 10.3267 16.2199 9.78667 15.8999 9.04C15.7133 8.62 15.9133 8.12667 16.3333 7.94667C16.7533 7.76 17.2466 7.96 17.4266 8.38C17.5999 8.78667 18.0066 9.03333 18.4533 8.99333H18.5199C18.8466 8.93333 18.9266 8.66 18.9466 8.55333C18.9599 8.45333 18.9866 8.12 18.6466 7.94667L17.1066 7.15333C16.2199 6.7 15.7533 5.73333 15.9333 4.75333C16.0999 3.86667 16.7399 3.20667 17.5866 3.01333V2.78C17.5866 2.32 17.9599 1.94667 18.4199 1.94667C18.8799 1.94667 19.2533 2.32 19.2533 2.78V3.2C19.8533 3.46667 20.3399 3.94 20.6133 4.56667C20.7999 4.98667 20.5999 5.48 20.1799 5.66C19.7599 5.84667 19.2666 5.64667 19.0866 5.22667C18.9133 4.82 18.5066 4.57333 18.0599 4.61333C17.6866 4.65333 17.5999 4.93333 17.5733 5.05333C17.5533 5.15333 17.5199 5.48667 17.8666 5.66667L17.8733 5.66ZM22.2133 15.2733C21.7599 15.2067 21.3333 15.52 21.2666 15.98C20.9799 17.94 19.8266 19.6533 18.1733 20.68L17.8333 19.9867C17.6399 19.5933 17.0799 19.5933 16.8799 19.9867L15.7666 22.2C15.6066 22.5133 15.7933 22.8933 16.1399 22.96L18.5733 23.4333C19.0066 23.52 19.3466 23.0733 19.1533 22.6733L18.9133 22.18C21.0533 20.9067 22.5466 18.7267 22.9133 16.22C22.9799 15.7667 22.6666 15.34 22.2133 15.2733V15.2733Z" fill="#2E5276"/>
</g>
</g>
<defs>
<clipPath id="clip0_405_8893">
<rect width="26" height="26" fill="white"/>
</clipPath>
<clipPath id="clip1_405_8893">
<rect width="25.3333" height="26" fill="white"/>
</clipPath>
</defs>
</svg>
