<svg width="26" height="26" viewBox="0 0 26 26" fill="none" xmlns="http://www.w3.org/2000/svg">
<path d="M17.3096 11.6727L15.0097 9.37284C14.8798 9.24291 14.6784 9.24291 14.5485 9.37284L10.501 13.4203C10.0397 13.8816 9.46802 14.2129 8.83783 14.3883C8.20765 14.5637 7.63593 14.8951 7.18116 15.3563L2.38006 20.1704C1.87331 20.6772 1.87331 21.5023 2.38006 22.009L4.67991 24.3089C5.18666 24.8156 6.01174 24.8156 6.51849 24.3089L11.3261 19.5013C11.7874 19.04 12.1187 18.4683 12.2941 17.8446C12.4695 17.2144 12.8008 16.6427 13.2621 16.1879L17.3096 12.147C17.4395 12.017 17.4395 11.8156 17.3096 11.6857V11.6727Z" fill="white"/>
<path d="M15.9322 8.00154C15.8023 8.13147 15.8023 8.33287 15.9322 8.46281L18.2321 10.7627C18.362 10.8926 18.5634 10.8926 18.6933 10.7627L19.3365 10.1195C20.4604 11.3863 21.409 12.6337 22.1886 13.8161C22.9812 13.9136 23.7478 14.1085 24.4624 14.4138C24.6119 12.6077 24.1181 9.96356 22.1431 7.31938L22.3705 7.09199C22.5004 6.96206 22.5004 6.76066 22.3705 6.63073L20.0706 4.33087C19.9407 4.20094 19.7393 4.20094 19.6094 4.33087L19.408 4.53227C15.9517 1.82963 12.4954 1.6867 10.8258 2.29739C10.4554 2.43382 10.436 2.95356 10.7868 3.13547C12.411 3.98655 14.5224 5.4808 16.5819 7.35186L15.9322 8.00154Z" fill="white"/>
</svg>
