<svg width="26" height="26" viewBox="0 0 26 26" fill="none" xmlns="http://www.w3.org/2000/svg">
<path d="M22.9604 0.0250463L2.39942 0C1.65185 0 1.04577 0.608818 1.04577 1.36021L1.03621 8.82786L3.73969 8.83172L3.74734 2.7262L21.6067 2.74739L21.5819 23.2738L3.72248 23.2526L3.73013 17.1471L1.02665 17.1432L1.01709 24.609C1.01709 25.3604 1.62126 25.9711 2.36692 25.973L22.9298 25.9981C23.6755 25.9981 24.2815 25.3893 24.2835 24.6379L24.3121 1.38718C24.3121 0.635791 23.708 0.0250463 22.9623 0.0231197L22.9604 0.0250463Z" fill="#2E5276"/>
<path d="M12.6361 10.2668L8.37243 10.2726L8.36861 6.37695L1 13.0065L8.3839 19.6149L8.38008 15.7192L12.6418 15.7154L12.6361 10.2668Z" fill="#2E5276"/>
</svg>
