<svg width="1920" height="960" viewBox="0 0 1920 960" fill="none" xmlns="http://www.w3.org/2000/svg">
<rect width="1920" height="960" fill="white"/>
<g clip-path="url(#clip0_333_8396)">
<path d="M1943 0H-14V1101H1943V0Z" fill="url(#paint0_linear_333_8396)"/>
<path d="M653.413 403.189C726.624 403.189 785.974 343.818 785.974 270.58C785.974 197.342 726.624 137.972 653.413 137.972C580.201 137.972 520.852 197.342 520.852 270.58C520.852 343.818 580.201 403.189 653.413 403.189Z" fill="url(#paint1_linear_333_8396)"/>
<path d="M-166.815 1032.96C-185.339 1014.43 -185.339 984.418 -166.815 965.888L21.3974 777.608C39.9208 759.078 69.9265 759.078 88.4499 777.608C106.973 796.138 106.973 826.155 88.4499 844.685L-99.7628 1032.96C-118.286 1051.49 -148.292 1051.49 -166.815 1032.96Z" fill="url(#paint2_linear_333_8396)"/>
<path d="M736.01 663.827C754.533 682.357 754.533 712.373 736.01 730.903L547.797 919.183C529.274 937.713 499.268 937.713 480.745 919.183C462.221 900.653 462.221 870.637 480.745 852.107L668.957 663.827C687.481 645.297 717.486 645.297 736.01 663.827V663.827Z" fill="url(#paint3_linear_333_8396)"/>
<path d="M202.19 935.302C183.667 916.772 183.667 886.756 202.19 868.226L390.403 679.946C408.926 661.416 438.932 661.416 457.455 679.946C475.978 698.476 475.978 728.493 457.455 747.023L269.242 935.302C250.719 953.832 220.713 953.832 202.19 935.302Z" fill="url(#paint4_linear_333_8396)"/>
<path d="M112.633 1161.1C94.1099 1142.57 94.1099 1112.56 112.633 1094.03L300.846 905.746C319.369 887.216 349.375 887.216 367.898 905.746C386.422 924.276 386.422 954.292 367.898 972.822L179.686 1161.1C161.162 1179.63 131.157 1179.63 112.633 1161.1Z" fill="url(#paint5_linear_333_8396)"/>
<path d="M-232.107 969.111C-250.631 950.581 -250.631 920.565 -232.107 902.035L33.1505 633.106C51.6739 614.576 81.6796 614.576 100.203 633.106C118.726 651.636 118.726 681.653 100.203 700.183L-165.055 969.111C-183.578 987.641 -213.584 987.641 -232.107 969.111V969.111Z" fill="url(#paint6_linear_333_8396)"/>
<path d="M19.2309 855.683C17.1457 853.597 17.1457 850.184 19.2309 848.07L180.092 687.152C182.177 685.066 185.589 685.066 187.702 687.152C189.787 689.238 189.787 692.652 187.702 694.765L26.8407 855.683C24.7554 857.769 21.3432 857.769 19.2309 855.683V855.683Z" fill="url(#paint7_linear_333_8396)"/>
<path d="M56.0341 673.716C58.1193 675.802 58.1193 679.215 56.0341 681.328L-104.827 842.246C-106.912 844.332 -110.324 844.332 -112.437 842.246C-114.522 840.16 -114.522 836.747 -112.437 834.634L48.4243 673.716C50.5096 671.603 53.9218 671.603 56.0341 673.716V673.716Z" fill="url(#paint8_linear_333_8396)"/>
<path d="M187.62 823.418C185.535 821.332 185.535 817.919 187.62 815.806L348.481 654.888C350.566 652.802 353.978 652.802 356.091 654.888C358.176 656.974 358.176 660.387 356.091 662.5L195.23 823.418C193.145 825.504 189.732 825.504 187.62 823.418Z" fill="url(#paint9_linear_333_8396)"/>
<path d="M-12.9956 1026.81C-15.0809 1024.73 -15.0809 1021.32 -12.9956 1019.2L147.865 858.284C149.95 856.171 153.363 856.171 155.475 858.284C157.56 860.37 157.56 863.783 155.475 865.896L-5.3859 1026.81C-7.47114 1028.9 -10.8833 1028.9 -12.9956 1026.81V1026.81Z" fill="url(#paint10_linear_333_8396)"/>
<path d="M648.972 751.683C651.057 753.769 651.057 757.182 648.972 759.295L488.111 920.213C486.025 922.299 482.613 922.299 480.501 920.213C478.416 918.127 478.416 914.714 480.501 912.601L641.362 751.683C643.447 749.597 646.859 749.597 648.972 751.683Z" fill="url(#paint11_linear_333_8396)"/>
<path d="M678.517 886.079C680.602 888.165 680.602 891.579 678.517 893.692L517.656 1054.61C515.57 1056.7 512.158 1056.7 510.046 1054.61C507.961 1052.5 507.961 1049.11 510.046 1047L670.907 886.079C672.992 883.993 676.404 883.993 678.517 886.079Z" fill="url(#paint12_linear_333_8396)"/>
<path d="M466.256 816.186C468.342 818.272 468.342 821.685 466.256 823.798L305.395 984.716C303.283 986.802 299.898 986.802 297.786 984.716C295.7 982.63 295.7 979.217 297.786 977.104L458.647 816.186C460.732 814.1 464.144 814.1 466.256 816.186Z" fill="url(#paint13_linear_333_8396)"/>
<path d="M209.123 665.751C207.037 663.638 207.037 660.252 209.123 658.139L369.983 497.221C372.069 495.135 375.481 495.135 377.593 497.221C379.678 499.307 379.678 502.72 377.593 504.833L216.732 665.751C214.647 667.837 211.235 667.837 209.123 665.751Z" fill="url(#paint14_linear_333_8396)"/>
<path d="M837.049 825.151C839.134 827.237 839.134 830.651 837.049 832.764L676.188 993.682C674.103 995.768 670.69 995.768 668.578 993.682C666.493 991.596 666.493 988.183 668.578 986.069L829.439 825.151C831.524 823.065 834.936 823.065 837.049 825.151Z" fill="url(#paint15_linear_333_8396)"/>
<path d="M32.7714 774.06C34.8566 776.146 34.8566 779.559 32.7714 781.672L-128.09 942.59C-130.175 944.676 -133.587 944.676 -135.699 942.59C-137.784 940.504 -137.784 937.091 -135.699 934.978L25.1616 774.06C27.2469 771.974 30.6591 771.974 32.7714 774.06Z" fill="url(#paint16_linear_333_8396)"/>
</g>
<defs>
<linearGradient id="paint0_linear_333_8396" x1="403.072" y1="172.059" x2="2493.15" y2="1580.43" gradientUnits="userSpaceOnUse">
<stop offset="0.1" stop-color="#5D53C8"/>
<stop offset="0.33" stop-color="#976FBF"/>
<stop offset="0.44" stop-color="#E07C7F"/>
<stop offset="0.8" stop-color="#EFD04F"/>
</linearGradient>
<linearGradient id="paint1_linear_333_8396" x1="584.329" y1="-37.3315" x2="835.296" y2="1080.79" gradientUnits="userSpaceOnUse">
<stop offset="0.1" stop-color="#766CE7"/>
<stop offset="0.33" stop-color="#BF6FB7"/>
<stop offset="0.44" stop-color="#E07C7F"/>
<stop offset="0.72" stop-color="#EFD04F"/>
</linearGradient>
<linearGradient id="paint2_linear_333_8396" x1="269.981" y1="867.088" x2="-530.059" y2="965.883" gradientUnits="userSpaceOnUse">
<stop offset="0.1" stop-color="#766CE7"/>
<stop offset="0.33" stop-color="#BF6FB7"/>
<stop offset="0.44" stop-color="#E07C7F"/>
<stop offset="0.72" stop-color="#EFD04F"/>
</linearGradient>
<linearGradient id="paint3_linear_333_8396" x1="299.186" y1="829.719" x2="1099.25" y2="730.943" gradientUnits="userSpaceOnUse">
<stop offset="0.1" stop-color="#766CE7"/>
<stop offset="0.33" stop-color="#BF6FB7"/>
<stop offset="0.44" stop-color="#E07C7F"/>
<stop offset="0.72" stop-color="#EFD04F"/>
</linearGradient>
<linearGradient id="paint4_linear_333_8396" x1="638.984" y1="769.431" x2="-161.056" y2="868.225" gradientUnits="userSpaceOnUse">
<stop offset="0.1" stop-color="#766CE7"/>
<stop offset="0.33" stop-color="#BF6FB7"/>
<stop offset="0.44" stop-color="#E07C7F"/>
<stop offset="0.72" stop-color="#EFD04F"/>
</linearGradient>
<linearGradient id="paint5_linear_333_8396" x1="549.424" y1="995.222" x2="-250.616" y2="1094.02" gradientUnits="userSpaceOnUse">
<stop offset="0.1" stop-color="#766CE7"/>
<stop offset="0.33" stop-color="#BF6FB7"/>
<stop offset="0.44" stop-color="#E07C7F"/>
<stop offset="0.72" stop-color="#EFD04F"/>
</linearGradient>
<linearGradient id="paint6_linear_333_8396" x1="330.779" y1="752.094" x2="-695.912" y2="878.875" gradientUnits="userSpaceOnUse">
<stop offset="0.1" stop-color="#766CE7"/>
<stop offset="0.33" stop-color="#BF6FB7"/>
<stop offset="0.44" stop-color="#E07C7F"/>
<stop offset="0.72" stop-color="#EFD04F"/>
</linearGradient>
<linearGradient id="paint7_linear_333_8396" x1="296.363" y1="747.583" x2="-202.802" y2="809.241" gradientUnits="userSpaceOnUse">
<stop offset="0.1" stop-color="#766CE7"/>
<stop offset="0.33" stop-color="#BF6FB7"/>
<stop offset="0.44" stop-color="#E07C7F"/>
<stop offset="0.72" stop-color="#EFD04F"/>
</linearGradient>
<linearGradient id="paint8_linear_333_8396" x1="-221.044" y1="781.83" x2="278.102" y2="720.191" gradientUnits="userSpaceOnUse">
<stop offset="0.1" stop-color="#766CE7"/>
<stop offset="0.33" stop-color="#BF6FB7"/>
<stop offset="0.44" stop-color="#E07C7F"/>
<stop offset="0.72" stop-color="#EFD04F"/>
</linearGradient>
<linearGradient id="paint9_linear_333_8396" x1="464.742" y1="715.344" x2="-34.4242" y2="776.964" gradientUnits="userSpaceOnUse">
<stop offset="0.1" stop-color="#766CE7"/>
<stop offset="0.33" stop-color="#BF6FB7"/>
<stop offset="0.44" stop-color="#E07C7F"/>
<stop offset="0.72" stop-color="#EFD04F"/>
</linearGradient>
<linearGradient id="paint10_linear_333_8396" x1="264.116" y1="918.723" x2="-235.03" y2="980.362" gradientUnits="userSpaceOnUse">
<stop offset="0.1" stop-color="#766CE7"/>
<stop offset="0.33" stop-color="#BF6FB7"/>
<stop offset="0.44" stop-color="#E07C7F"/>
<stop offset="0.72" stop-color="#EFD04F"/>
</linearGradient>
<linearGradient id="paint11_linear_333_8396" x1="371.834" y1="859.778" x2="871.019" y2="798.139" gradientUnits="userSpaceOnUse">
<stop offset="0.1" stop-color="#766CE7"/>
<stop offset="0.33" stop-color="#BF6FB7"/>
<stop offset="0.44" stop-color="#E07C7F"/>
<stop offset="0.72" stop-color="#EFD04F"/>
</linearGradient>
<linearGradient id="paint12_linear_333_8396" x1="401.4" y1="994.177" x2="900.547" y2="932.538" gradientUnits="userSpaceOnUse">
<stop offset="0.1" stop-color="#766CE7"/>
<stop offset="0.33" stop-color="#BF6FB7"/>
<stop offset="0.44" stop-color="#E07C7F"/>
<stop offset="0.72" stop-color="#EFD04F"/>
</linearGradient>
<linearGradient id="paint13_linear_333_8396" x1="189.113" y1="924.296" x2="688.298" y2="862.657" gradientUnits="userSpaceOnUse">
<stop offset="0.1" stop-color="#766CE7"/>
<stop offset="0.33" stop-color="#BF6FB7"/>
<stop offset="0.44" stop-color="#E07C7F"/>
<stop offset="0.72" stop-color="#EFD04F"/>
</linearGradient>
<linearGradient id="paint14_linear_333_8396" x1="486.246" y1="557.634" x2="-12.9196" y2="619.292" gradientUnits="userSpaceOnUse">
<stop offset="0.1" stop-color="#766CE7"/>
<stop offset="0.33" stop-color="#BF6FB7"/>
<stop offset="0.44" stop-color="#E07C7F"/>
<stop offset="0.72" stop-color="#EFD04F"/>
</linearGradient>
<linearGradient id="paint15_linear_333_8396" x1="559.915" y1="933.233" x2="1059.08" y2="871.613" gradientUnits="userSpaceOnUse">
<stop offset="0.1" stop-color="#766CE7"/>
<stop offset="0.33" stop-color="#BF6FB7"/>
<stop offset="0.44" stop-color="#E07C7F"/>
<stop offset="0.72" stop-color="#EFD04F"/>
</linearGradient>
<linearGradient id="paint16_linear_333_8396" x1="-244.344" y1="882.183" x2="254.841" y2="820.544" gradientUnits="userSpaceOnUse">
<stop offset="0.1" stop-color="#766CE7"/>
<stop offset="0.33" stop-color="#BF6FB7"/>
<stop offset="0.44" stop-color="#E07C7F"/>
<stop offset="0.72" stop-color="#EFD04F"/>
</linearGradient>
<clipPath id="clip0_333_8396">
<rect width="1920" height="960" fill="white"/>
</clipPath>
</defs>
</svg>
