<svg width="375" height="812" viewBox="0 0 375 812" fill="none" xmlns="http://www.w3.org/2000/svg">
<g clip-path="url(#clip0_333_8439)">
<rect width="375" height="812" fill="white"/>
<g clip-path="url(#clip1_333_8439)">
<path d="M1706 0H-13.6406V967.649H1706V0Z" fill="url(#paint0_linear_333_8439)"/>
<path d="M406.381 458.735C446.335 458.735 478.723 426.335 478.723 386.368C478.723 346.4 446.335 314 406.381 314C366.428 314 334.04 346.4 334.04 386.368C334.04 426.335 366.428 458.735 406.381 458.735Z" fill="url(#paint1_linear_333_8439)"/>
<path d="M-41.2364 802.418C-51.345 792.306 -51.345 775.925 -41.2364 765.813L61.4757 663.065C71.5843 652.952 87.9592 652.952 98.0678 663.065C108.176 673.177 108.176 689.557 98.0678 699.67L-4.64428 802.418C-14.7529 812.531 -31.1277 812.531 -41.2364 802.418Z" fill="url(#paint2_linear_333_8439)"/>
<path d="M451.456 600.971C461.565 611.083 461.565 627.464 451.456 637.576L348.744 740.325C338.636 750.437 322.261 750.437 312.152 740.325C302.044 730.212 302.044 713.832 312.152 703.72L414.864 600.971C424.973 590.859 441.348 590.859 451.456 600.971V600.971Z" fill="url(#paint3_linear_333_8439)"/>
<path d="M160.139 749.121C150.03 739.009 150.03 722.629 160.139 712.516L262.851 609.768C272.959 599.656 289.334 599.656 299.443 609.768C309.551 619.88 309.551 636.261 299.443 646.373L196.731 749.121C186.622 759.234 170.247 759.234 160.139 749.121Z" fill="url(#paint4_linear_333_8439)"/>
<path d="M111.265 872.346C101.156 862.234 101.156 845.853 111.265 835.741L213.977 732.992C224.086 722.88 240.461 722.88 250.569 732.992C260.678 743.105 260.678 759.485 250.569 769.598L147.857 872.346C137.749 882.458 121.374 882.458 111.265 872.346Z" fill="url(#paint5_linear_333_8439)"/>
<path d="M-76.8677 767.572C-86.9764 757.46 -86.9764 741.079 -76.8677 730.967L67.8898 584.206C77.9984 574.094 94.3732 574.094 104.482 584.206C114.591 594.318 114.591 610.699 104.482 620.811L-40.2756 767.572C-50.3843 777.684 -66.7591 777.684 -76.8677 767.572V767.572Z" fill="url(#paint6_linear_333_8439)"/>
<path d="M60.2934 705.673C59.1555 704.535 59.1555 702.672 60.2934 701.519L148.079 613.702C149.217 612.564 151.079 612.564 152.232 613.702C153.37 614.841 153.37 616.704 152.232 617.857L64.4462 705.673C63.3083 706.812 61.4462 706.812 60.2934 705.673V705.673Z" fill="url(#paint7_linear_333_8439)"/>
<path d="M80.3773 606.37C81.5153 607.508 81.5153 609.371 80.3773 610.524L-7.40826 698.341C-8.54622 699.479 -10.4083 699.479 -11.5611 698.341C-12.699 697.202 -12.699 695.34 -11.5611 694.187L76.2245 606.37C77.3625 605.217 79.2246 605.217 80.3773 606.37V606.37Z" fill="url(#paint8_linear_333_8439)"/>
<path d="M152.187 688.066C151.049 686.928 151.049 685.065 152.187 683.912L239.973 596.095C241.111 594.957 242.973 594.957 244.126 596.095C245.264 597.233 245.264 599.096 244.126 600.249L156.34 688.066C155.202 689.204 153.34 689.204 152.187 688.066Z" fill="url(#paint9_linear_333_8439)"/>
<path d="M42.7065 799.063C41.5685 797.925 41.5685 796.062 42.7065 794.909L130.492 707.092C131.63 705.939 133.492 705.939 134.645 707.092C135.783 708.231 135.783 710.094 134.645 711.247L46.8593 799.063C45.7214 800.202 43.8592 800.202 42.7065 799.063V799.063Z" fill="url(#paint10_linear_333_8439)"/>
<path d="M403.957 648.918C405.095 650.057 405.095 651.919 403.957 653.073L316.172 740.889C315.034 742.028 313.172 742.028 312.019 740.889C310.881 739.751 310.881 737.888 312.019 736.735L399.805 648.918C400.943 647.78 402.805 647.78 403.957 648.918Z" fill="url(#paint11_linear_333_8439)"/>
<path d="M420.081 722.261C421.219 723.399 421.219 725.262 420.081 726.415L332.295 814.232C331.157 815.37 329.295 815.37 328.143 814.232C327.005 813.079 327.005 811.231 328.143 810.078L415.928 722.261C417.066 721.123 418.928 721.123 420.081 722.261Z" fill="url(#paint12_linear_333_8439)"/>
<path d="M304.246 684.118C305.384 685.257 305.384 687.12 304.246 688.273L216.46 776.09C215.308 777.228 213.46 777.228 212.308 776.09C211.17 774.951 211.17 773.088 212.308 771.935L300.093 684.118C301.231 682.98 303.093 682.98 304.246 684.118Z" fill="url(#paint13_linear_333_8439)"/>
<path d="M163.921 602.023C162.783 600.87 162.783 599.022 163.921 597.869L251.707 510.052C252.845 508.914 254.707 508.914 255.86 510.052C256.998 511.19 256.998 513.053 255.86 514.206L168.074 602.023C166.936 603.161 165.074 603.161 163.921 602.023Z" fill="url(#paint14_linear_333_8439)"/>
<path d="M67.6825 661.129C68.8205 662.268 68.8205 664.13 67.6825 665.283L-20.1031 753.1C-21.241 754.239 -23.1032 754.239 -24.2559 753.1C-25.3939 751.962 -25.3939 750.099 -24.2559 748.946L63.5297 661.129C64.6676 659.991 66.5298 659.991 67.6825 661.129Z" fill="url(#paint15_linear_333_8439)"/>
</g>
</g>
<defs>
<linearGradient id="paint0_linear_333_8439" x1="352.846" y1="151.22" x2="2189.64" y2="1388.68" gradientUnits="userSpaceOnUse">
<stop offset="0.1" stop-color="#5D53C8"/>
<stop offset="0.33" stop-color="#976FBF"/>
<stop offset="0.44" stop-color="#E07C7F"/>
<stop offset="0.8" stop-color="#EFD04F"/>
</linearGradient>
<linearGradient id="paint1_linear_333_8439" x1="368.681" y1="218.333" x2="505.639" y2="828.521" gradientUnits="userSpaceOnUse">
<stop offset="0.1" stop-color="#766CE7"/>
<stop offset="0.33" stop-color="#BF6FB7"/>
<stop offset="0.44" stop-color="#E07C7F"/>
<stop offset="0.72" stop-color="#EFD04F"/>
</linearGradient>
<linearGradient id="paint2_linear_333_8439" x1="197.133" y1="711.896" x2="-239.467" y2="765.81" gradientUnits="userSpaceOnUse">
<stop offset="0.1" stop-color="#766CE7"/>
<stop offset="0.33" stop-color="#BF6FB7"/>
<stop offset="0.44" stop-color="#E07C7F"/>
<stop offset="0.72" stop-color="#EFD04F"/>
</linearGradient>
<linearGradient id="paint3_linear_333_8439" x1="213.071" y1="691.502" x2="649.683" y2="637.598" gradientUnits="userSpaceOnUse">
<stop offset="0.1" stop-color="#766CE7"/>
<stop offset="0.33" stop-color="#BF6FB7"/>
<stop offset="0.44" stop-color="#E07C7F"/>
<stop offset="0.72" stop-color="#EFD04F"/>
</linearGradient>
<linearGradient id="paint4_linear_333_8439" x1="398.508" y1="658.602" x2="-38.093" y2="712.516" gradientUnits="userSpaceOnUse">
<stop offset="0.1" stop-color="#766CE7"/>
<stop offset="0.33" stop-color="#BF6FB7"/>
<stop offset="0.44" stop-color="#E07C7F"/>
<stop offset="0.72" stop-color="#EFD04F"/>
</linearGradient>
<linearGradient id="paint5_linear_333_8439" x1="349.632" y1="781.821" x2="-86.9686" y2="835.736" gradientUnits="userSpaceOnUse">
<stop offset="0.1" stop-color="#766CE7"/>
<stop offset="0.33" stop-color="#BF6FB7"/>
<stop offset="0.44" stop-color="#E07C7F"/>
<stop offset="0.72" stop-color="#EFD04F"/>
</linearGradient>
<linearGradient id="paint6_linear_333_8439" x1="230.313" y1="649.141" x2="-329.977" y2="718.328" gradientUnits="userSpaceOnUse">
<stop offset="0.1" stop-color="#766CE7"/>
<stop offset="0.33" stop-color="#BF6FB7"/>
<stop offset="0.44" stop-color="#E07C7F"/>
<stop offset="0.72" stop-color="#EFD04F"/>
</linearGradient>
<linearGradient id="paint7_linear_333_8439" x1="211.531" y1="646.681" x2="-60.8753" y2="680.329" gradientUnits="userSpaceOnUse">
<stop offset="0.1" stop-color="#766CE7"/>
<stop offset="0.33" stop-color="#BF6FB7"/>
<stop offset="0.44" stop-color="#E07C7F"/>
<stop offset="0.72" stop-color="#EFD04F"/>
</linearGradient>
<linearGradient id="paint8_linear_333_8439" x1="-70.8309" y1="665.37" x2="201.565" y2="631.733" gradientUnits="userSpaceOnUse">
<stop offset="0.1" stop-color="#766CE7"/>
<stop offset="0.33" stop-color="#BF6FB7"/>
<stop offset="0.44" stop-color="#E07C7F"/>
<stop offset="0.72" stop-color="#EFD04F"/>
</linearGradient>
<linearGradient id="paint9_linear_333_8439" x1="303.419" y1="629.088" x2="31.0126" y2="662.715" gradientUnits="userSpaceOnUse">
<stop offset="0.1" stop-color="#766CE7"/>
<stop offset="0.33" stop-color="#BF6FB7"/>
<stop offset="0.44" stop-color="#E07C7F"/>
<stop offset="0.72" stop-color="#EFD04F"/>
</linearGradient>
<linearGradient id="paint10_linear_333_8439" x1="193.933" y1="740.075" x2="-78.4631" y2="773.713" gradientUnits="userSpaceOnUse">
<stop offset="0.1" stop-color="#766CE7"/>
<stop offset="0.33" stop-color="#BF6FB7"/>
<stop offset="0.44" stop-color="#E07C7F"/>
<stop offset="0.72" stop-color="#EFD04F"/>
</linearGradient>
<linearGradient id="paint11_linear_333_8439" x1="252.717" y1="707.909" x2="525.134" y2="674.271" gradientUnits="userSpaceOnUse">
<stop offset="0.1" stop-color="#766CE7"/>
<stop offset="0.33" stop-color="#BF6FB7"/>
<stop offset="0.44" stop-color="#E07C7F"/>
<stop offset="0.72" stop-color="#EFD04F"/>
</linearGradient>
<linearGradient id="paint12_linear_333_8439" x1="268.852" y1="781.252" x2="541.248" y2="747.615" gradientUnits="userSpaceOnUse">
<stop offset="0.1" stop-color="#766CE7"/>
<stop offset="0.33" stop-color="#BF6FB7"/>
<stop offset="0.44" stop-color="#E07C7F"/>
<stop offset="0.72" stop-color="#EFD04F"/>
</linearGradient>
<linearGradient id="paint13_linear_333_8439" x1="153.002" y1="743.117" x2="425.419" y2="709.479" gradientUnits="userSpaceOnUse">
<stop offset="0.1" stop-color="#766CE7"/>
<stop offset="0.33" stop-color="#BF6FB7"/>
<stop offset="0.44" stop-color="#E07C7F"/>
<stop offset="0.72" stop-color="#EFD04F"/>
</linearGradient>
<linearGradient id="paint14_linear_333_8439" x1="315.154" y1="543.021" x2="42.7477" y2="576.669" gradientUnits="userSpaceOnUse">
<stop offset="0.1" stop-color="#766CE7"/>
<stop offset="0.33" stop-color="#BF6FB7"/>
<stop offset="0.44" stop-color="#E07C7F"/>
<stop offset="0.72" stop-color="#EFD04F"/>
</linearGradient>
<linearGradient id="paint15_linear_333_8439" x1="-83.5459" y1="720.134" x2="188.871" y2="686.497" gradientUnits="userSpaceOnUse">
<stop offset="0.1" stop-color="#766CE7"/>
<stop offset="0.33" stop-color="#BF6FB7"/>
<stop offset="0.44" stop-color="#E07C7F"/>
<stop offset="0.72" stop-color="#EFD04F"/>
</linearGradient>
<clipPath id="clip0_333_8439">
<rect width="375" height="812" fill="white"/>
</clipPath>
<clipPath id="clip1_333_8439">
<rect width="375" height="812" fill="white"/>
</clipPath>
</defs>
</svg>
